<svg width="16" height="19" viewBox="0 0 16 19" fill="none" xmlns="http://www.w3.org/2000/svg">
<path fill-rule="evenodd" clip-rule="evenodd" d="M15.1462 15.4841C15.1462 18.6357 10.8241 19 7.57403 19L7.34145 18.9998C5.27075 18.9948 0 18.864 0 15.4649C0 12.3776 4.14832 11.965 7.37369 11.9495L7.8066 11.9492C9.87717 11.9542 15.1462 12.085 15.1462 15.4841ZM7.57403 13.3833C3.49968 13.3833 1.43429 14.0832 1.43429 15.4649C1.43429 16.8591 3.49968 17.5657 7.57403 17.5657C11.6474 17.5657 13.7119 16.8658 13.7119 15.4841C13.7119 14.0899 11.6474 13.3833 7.57403 13.3833ZM7.57403 0C10.3738 0 12.6505 2.27766 12.6505 5.0774C12.6505 7.87714 10.3738 10.1538 7.57403 10.1538H7.54343C4.74943 10.1452 2.48611 7.86663 2.49564 5.07453C2.49564 2.27766 4.77333 0 7.57403 0ZM7.57403 1.36545C5.52681 1.36545 3.8611 3.03019 3.8611 5.0774C3.85443 7.11792 5.50769 8.78171 7.5463 8.78936L7.57403 9.47208V8.78936C9.62029 8.78936 11.285 7.12366 11.285 5.0774C11.285 3.03019 9.62029 1.36545 7.57403 1.36545Z" fill="black"/>
</svg>
