<svg width="26" height="26" viewBox="0 0 26 26" fill="none" xmlns="http://www.w3.org/2000/svg">
<rect width="26" height="26" rx="13" fill="#EC1C24" fill-opacity="0.1"/>
<path d="M13.9161 13L17.8099 9.10605C18.0634 8.85277 18.0634 8.44325 17.8099 8.18996C17.5567 7.93668 17.1471 7.93668 16.8939 8.18996L12.9999 12.0839L9.10614 8.18996C8.85274 7.93668 8.44333 7.93668 8.19005 8.18996C7.93665 8.44325 7.93665 8.85277 8.19005 9.10605L12.0839 13L8.19005 16.8939C7.93665 17.1472 7.93665 17.5567 8.19005 17.81C8.31628 17.9363 8.48225 17.9998 8.6481 17.9998C8.81395 17.9998 8.9798 17.9363 9.10614 17.81L12.9999 13.9161L16.8939 17.81C17.0202 17.9363 17.1861 17.9998 17.3519 17.9998C17.5178 17.9998 17.6836 17.9363 17.8099 17.81C18.0634 17.5567 18.0634 17.1472 17.8099 16.8939L13.9161 13Z" fill="#EC1C24" stroke="#EC1C24" stroke-width="0.5"/>
</svg>
