<svg width="185" height="38" viewBox="0 0 185 38" fill="none" xmlns="http://www.w3.org/2000/svg">
<mask id="mask0_5578_3077" style="mask-type:alpha" maskUnits="userSpaceOnUse" x="0" y="0" width="185" height="38">
<rect width="185" height="37.2189" fill="white"/>
</mask>
<g mask="url(#mask0_5578_3077)">
<path fill-rule="evenodd" clip-rule="evenodd" d="M48.8777 19.7048V4.1399H53.9662C55.6553 4.1399 56.9239 4.48912 57.7719 5.18754C58.6271 5.88596 59.0548 6.91935 59.0548 8.28769C59.0548 9.01463 58.8481 9.6596 58.4347 10.2226C58.0214 10.7785 57.4583 11.2097 56.7457 11.5161C57.5866 11.7513 58.2494 12.2003 58.734 12.8631C59.2258 13.5188 59.4716 14.3027 59.4716 15.2149C59.4716 16.6118 59.0191 17.7093 58.114 18.5075C57.2089 19.3057 55.9296 19.7048 54.2762 19.7048H48.8777V19.7048ZM50.9299 12.4238V18.0255H54.3187C55.2737 18.0255 56.0255 17.7796 56.5743 17.2879C57.1302 16.789 57.4082 16.1048 57.4082 15.2354C57.4082 13.361 56.389 12.4238 54.3508 12.4238H50.9299V12.4238ZM50.9299 10.7779H54.03C54.928 10.7779 55.6442 10.5534 56.1788 10.1044C56.7204 9.6554 56.9912 9.04606 56.9912 8.27637C56.9912 7.42116 56.7417 6.80112 56.2429 6.41628C55.7441 6.02431 54.985 5.82832 53.9659 5.82832H50.9299V10.7779V10.7779ZM64.7204 19.7039H62.6679V4.13898H64.7204V19.7039V19.7039ZM72.4388 12.4667L70.5359 14.4443V19.7039H68.4834V4.13898H70.5359V11.8359L77.4525 4.13898H79.9326L73.8072 11.0127L80.4137 19.7039H77.955L72.4388 12.4667V12.4667ZM84.412 19.7039H82.3595V4.13898H84.412V19.7039V19.7039ZM93.8831 13.4073H90.2269V19.7039H88.1638V4.13898H93.3165C95.0697 4.13898 96.4166 4.53808 97.3573 5.33628C98.3052 6.13449 98.7791 7.29614 98.7791 8.82128C98.7791 9.79052 98.5154 10.635 97.9881 11.3548C97.4678 12.0747 96.7408 12.6127 95.8073 12.9691L99.4633 19.5756V19.7039H97.2611L93.8831 13.4073V13.4073ZM90.2273 11.7293H93.381C94.4001 11.7293 95.209 11.4657 95.8077 10.9382C96.4134 10.4108 96.7163 9.7053 96.7163 8.82157C96.7163 7.85946 96.4277 7.12183 95.8503 6.6087C95.2802 6.09557 94.4535 5.83545 93.3702 5.82832H90.2273V11.7293V11.7293ZM110.261 15.6417H103.74L102.275 19.7039H100.159L106.102 4.13898H107.898L113.853 19.7039H111.747L110.261 15.6417V15.6417ZM104.359 13.9526H109.651L107 6.67256L104.359 13.9526V13.9526ZM127.91 19.7039H125.847L118.011 7.7095V19.7039H115.948V4.13898H118.011L125.868 16.1868V4.13898H127.91V19.7039V19.7039ZM131.289 18.6673C131.289 18.3252 131.388 18.0401 131.587 17.8121C131.794 17.5841 132.101 17.47 132.507 17.47C132.913 17.47 133.22 17.5841 133.426 17.8121C133.64 18.0401 133.747 18.3252 133.747 18.6673C133.747 18.9951 133.64 19.2696 133.426 19.4905C133.22 19.7114 132.913 19.8218 132.507 19.8218C132.101 19.8218 131.794 19.7114 131.587 19.4905C131.388 19.2696 131.289 18.9951 131.289 18.6673V18.6673ZM148.777 14.7652C148.584 16.4115 147.975 17.6836 146.949 18.5816C145.929 19.4724 144.572 19.9178 142.876 19.9178C141.037 19.9178 139.562 19.2586 138.451 17.9402C137.345 16.6217 136.793 14.8578 136.793 12.6486V11.1519C136.793 9.70518 137.049 8.43305 137.563 7.33552C138.083 6.238 138.817 5.39703 139.765 4.81263C140.713 4.22111 141.81 3.92535 143.058 3.92535C144.711 3.92535 146.037 4.38859 147.034 5.31508C148.032 6.23443 148.612 7.51013 148.777 9.14216H146.713C146.536 7.9021 146.147 7.00413 145.548 6.44823C144.957 5.89234 144.127 5.6144 143.058 5.6144C141.747 5.6144 140.717 6.09902 139.968 7.06826C139.227 8.03751 138.857 9.41654 138.857 11.2053V12.7127C138.857 14.4017 139.209 15.7452 139.914 16.7429C140.62 17.7406 141.608 18.2395 142.876 18.2395C144.016 18.2395 144.889 17.9829 145.495 17.4698C146.108 16.9495 146.514 16.0481 146.713 14.7652H148.777V14.7652ZM163.562 12.424C163.562 13.9491 163.306 15.2819 162.793 16.4222C162.279 17.5553 161.552 18.4212 160.612 19.0199C159.671 19.6186 158.574 19.9178 157.319 19.9178C156.093 19.9178 155.006 19.6186 154.058 19.0199C153.11 18.4141 152.374 17.5553 151.846 16.4436C151.326 15.3246 151.058 14.0311 151.043 12.5631V11.4406C151.043 9.94392 151.304 8.6219 151.824 7.47449C152.345 6.32708 153.078 5.45049 154.026 4.84471C154.981 4.23181 156.072 3.92535 157.297 3.92535C158.545 3.92535 159.642 4.22824 160.59 4.83402C161.546 5.43267 162.279 6.3057 162.793 7.45311C163.306 8.5934 163.562 9.92254 163.562 11.4406V12.424V12.424ZM161.52 11.4191C161.52 9.57327 161.149 8.15861 160.408 7.17512C159.667 6.18449 158.63 5.68918 157.297 5.68918C156 5.68918 154.977 6.18449 154.23 7.17512C153.488 8.15861 153.106 9.52695 153.086 11.2802V12.424C153.086 14.2128 153.46 15.6203 154.208 16.6466C154.963 17.6657 156 18.1753 157.319 18.1753C158.644 18.1753 159.67 17.6943 160.397 16.7322C161.124 15.7628 161.498 14.3768 161.52 12.5736V11.4191V11.4191ZM169.292 4.13898L174.381 16.8389L179.469 4.13898H182.131V19.7039H180.078V13.6426L180.271 7.10017L175.161 19.7039H173.589L168.49 7.13223L168.694 13.6426V19.7039H166.641V4.13898H169.292V4.13898Z" fill="black"/>
<path fill-rule="evenodd" clip-rule="evenodd" d="M50.2671 30.4666C49.3869 30.2135 48.7455 29.9035 48.3428 29.5364C47.9437 29.1659 47.7442 28.7097 47.7442 28.1681C47.7442 27.5552 47.9883 27.0492 48.4765 26.6501C48.9682 26.2475 49.6061 26.0462 50.39 26.0462C50.9245 26.0462 51.4003 26.1495 51.8171 26.3562C52.2377 26.5628 52.5619 26.8479 52.79 27.2113C53.0216 27.5749 53.1374 27.9721 53.1374 28.4033H52.1058C52.1058 27.9329 51.9561 27.5641 51.6569 27.2968C51.3575 27.0261 50.9352 26.8907 50.39 26.8907C49.884 26.8907 49.4885 27.0029 49.2034 27.2274C48.9219 27.4483 48.7811 27.7566 48.7811 28.1521C48.7811 28.4692 48.9148 28.7383 49.182 28.9592C49.4528 29.1766 49.9107 29.3762 50.5557 29.5579C51.2042 29.7396 51.7103 29.9409 52.0737 30.1618C52.4408 30.3792 52.7116 30.6339 52.8862 30.9262C53.0644 31.2184 53.1534 31.5622 53.1534 31.9578C53.1534 32.5885 52.9075 33.0945 52.4158 33.4758C51.9241 33.8535 51.2666 34.0424 50.4435 34.0424C49.909 34.0424 49.41 33.9408 48.9469 33.7377C48.4836 33.531 48.1254 33.2496 47.8725 32.8932C47.6231 32.5368 47.4983 32.1324 47.4983 31.6799H48.5299C48.5299 32.1502 48.7028 32.5226 49.0484 32.797C49.3977 33.0678 49.8627 33.2032 50.4435 33.2032C50.9851 33.2032 51.4003 33.0927 51.6889 32.8718C51.9775 32.6509 52.1219 32.3497 52.1219 31.9685C52.1219 31.5872 51.9882 31.2933 51.7209 31.0866C51.4537 30.8763 50.9691 30.6696 50.2671 30.4666V30.4666ZM56.938 34.0417C56.154 34.0417 55.5161 33.7851 55.0244 33.272C54.5327 32.7553 54.2868 32.0657 54.2868 31.2035V31.0218C54.2868 30.448 54.3955 29.9367 54.6129 29.4877C54.8338 29.0351 55.1402 28.6823 55.5322 28.4293C55.9277 28.1728 56.3553 28.0445 56.8151 28.0445C57.5669 28.0445 58.1513 28.2922 58.5682 28.7875C58.9851 29.2828 59.1936 29.9919 59.1936 30.9148V31.3264H55.2756C55.2899 31.8965 55.4556 32.358 55.7727 32.7107C56.0935 33.0599 56.4997 33.2346 56.9914 33.2346C57.3406 33.2346 57.6364 33.1633 57.8788 33.0207C58.121 32.8782 58.333 32.6894 58.5148 32.4542L59.1188 32.9245C58.6342 33.6693 57.9072 34.0417 56.938 34.0417V34.0417ZM56.8148 28.857C56.4157 28.857 56.0807 29.0032 55.8099 29.2953C55.5391 29.584 55.3716 29.9902 55.3074 30.514H58.2045V30.4392C58.176 29.9368 58.0406 29.5483 57.7982 29.274C57.556 28.996 57.2281 28.857 56.8148 28.857V28.857ZM63.3567 29.0386C63.2071 29.0138 63.0449 29.0013 62.8703 29.0013C62.2219 29.0013 61.7817 29.2774 61.5501 29.8298V33.9348H60.5612V28.1514H61.5233L61.5394 28.8195C61.8637 28.3028 62.3233 28.0445 62.9184 28.0445C63.1108 28.0445 63.257 28.0694 63.3567 28.1193V29.0386V29.0386ZM66.4946 32.5932L67.927 28.1515H68.9373L66.8634 33.9349H66.1097L64.0144 28.1515H65.0247L66.4946 32.5932V32.5932ZM71.2876 33.9349H70.1929V28.1515H71.2876V33.9349V33.9349ZM70.1133 26.6175C70.1133 26.4571 70.1615 26.3217 70.2577 26.2112C70.3574 26.1008 70.5036 26.0456 70.6959 26.0456C70.8883 26.0456 71.0345 26.1008 71.1342 26.2112C71.234 26.3217 71.284 26.4571 71.284 26.6175C71.284 26.7778 71.234 26.9115 71.1342 27.0183C71.0345 27.1253 70.8883 27.1787 70.6959 27.1787C70.5036 27.1787 70.3574 27.1253 70.2577 27.0183C70.1615 26.9115 70.1133 26.7778 70.1133 26.6175V26.6175ZM75.308 33.2346C75.6608 33.2346 75.9691 33.1277 76.2326 32.9139C76.4964 32.7001 76.6425 32.4328 76.671 32.1122H77.6064C77.5886 32.4435 77.4746 32.7589 77.2643 33.0582C77.0541 33.3576 76.7725 33.5963 76.4197 33.7744C76.0705 33.9526 75.7 34.0417 75.308 34.0417C74.5205 34.0417 73.8933 33.7798 73.4266 33.256C72.9633 32.7286 72.7317 32.0088 72.7317 31.0965V30.9309C72.7317 30.3678 72.835 29.8672 73.0417 29.4289C73.2483 28.9906 73.5441 28.6503 73.929 28.408C74.3174 28.1656 74.7753 28.0445 75.3026 28.0445C75.9512 28.0445 76.4892 28.2387 76.9168 28.6272C77.348 29.0155 77.5779 29.5198 77.6064 30.1398H76.671C76.6425 29.7656 76.5 29.4592 76.2434 29.2205C75.9904 28.9781 75.6768 28.8569 75.3026 28.8569C74.8003 28.8569 74.41 29.0386 74.1321 29.4022C73.8578 29.7621 73.7205 30.2841 73.7205 30.9682V31.1553C73.7205 31.8217 73.8578 32.3348 74.1321 32.6947C74.4065 33.0547 74.7984 33.2346 75.308 33.2346V33.2346ZM81.3369 34.0417C80.5531 34.0417 79.9152 33.7851 79.4235 33.272C78.9317 32.7553 78.6859 32.0657 78.6859 31.2035V31.0218C78.6859 30.448 78.7945 29.9367 79.0119 29.4877C79.2328 29.0351 79.5393 28.6823 79.9313 28.4293C80.3268 28.1728 80.7544 28.0445 81.214 28.0445C81.9659 28.0445 82.5503 28.2922 82.9672 28.7875C83.3842 29.2828 83.5926 29.9919 83.5926 30.9148V31.3264H79.6747C79.6889 31.8965 79.8547 32.358 80.1718 32.7107C80.4925 33.0599 80.8986 33.2346 81.3905 33.2346C81.7397 33.2346 82.0355 33.1633 82.2777 33.0207C82.5201 32.8782 82.7321 32.6894 82.9138 32.4542L83.5178 32.9245C83.0331 33.6693 82.3063 34.0417 81.3369 34.0417V34.0417ZM81.2146 28.857C80.8156 28.857 80.4806 29.0032 80.2098 29.2953C79.939 29.584 79.7715 29.9902 79.7073 30.514H82.6044V30.4392C82.5758 29.9368 82.4404 29.5483 82.1982 29.274C81.9558 28.996 81.628 28.857 81.2146 28.857V28.857ZM84.929 35.485L84.3678 35.1002C84.7028 34.6334 84.8774 34.1524 84.8916 33.657V32.7644H85.8591V33.5394C85.8591 33.8993 85.77 34.2592 85.5919 34.6191C85.4173 34.979 85.1962 35.2676 84.929 35.485V35.485ZM92.7106 30.466C91.8304 30.2129 91.189 29.9029 90.7864 29.5359C90.3873 29.1653 90.1877 28.7092 90.1877 28.1675C90.1877 27.5546 90.4318 27.0486 90.9199 26.6495C91.4118 26.2469 92.0495 26.0456 92.8335 26.0456C93.3681 26.0456 93.8437 26.1489 94.2607 26.3556C94.6811 26.5623 95.0054 26.8473 95.2335 27.2108C95.4651 27.5743 95.5808 27.9716 95.5808 28.4028H94.5493C94.5493 27.9324 94.3996 27.5636 94.1003 27.2963C93.801 27.0255 93.3787 26.8901 92.8335 26.8901C92.3275 26.8901 91.932 27.0023 91.6469 27.2269C91.3654 27.4478 91.2247 27.756 91.2247 28.1515C91.2247 28.4687 91.3582 28.7377 91.6256 28.9586C91.8964 29.176 92.3543 29.3756 92.9992 29.5573C93.6477 29.739 94.1537 29.9403 94.5173 30.1612C94.8843 30.3786 95.1551 30.6334 95.3297 30.9257C95.5078 31.2178 95.5969 31.5617 95.5969 31.9573C95.5969 32.5879 95.3511 33.094 94.8593 33.4753C94.3675 33.8529 93.7101 34.0419 92.8869 34.0419C92.3524 34.0419 91.8536 33.9403 91.3903 33.7371C90.927 33.5304 90.569 33.249 90.316 32.8927C90.0665 32.5362 89.9418 32.1319 89.9418 31.6793H90.9735C90.9735 32.1496 91.1462 32.522 91.4919 32.7965C91.8411 33.0673 92.3061 33.2027 92.8869 33.2027C93.4286 33.2027 93.8437 33.0921 94.1324 32.8712C94.421 32.6503 94.5653 32.3492 94.5653 31.9679C94.5653 31.5866 94.4316 31.2927 94.1644 31.086C93.8972 30.8757 93.4126 30.6691 92.7106 30.466V30.466ZM99.3811 34.0417C98.5972 34.0417 97.9593 33.7851 97.4676 33.272C96.9759 32.7553 96.73 32.0657 96.73 31.2035V31.0218C96.73 30.448 96.8386 29.9367 97.056 29.4877C97.2769 29.0351 97.5834 28.6823 97.9754 28.4293C98.3709 28.1728 98.7985 28.0445 99.2582 28.0445C100.01 28.0445 100.594 28.2922 101.011 28.7875C101.428 29.2828 101.637 29.9919 101.637 30.9148V31.3264H97.7188C97.7331 31.8965 97.8988 32.358 98.2159 32.7107C98.5366 33.0599 98.9428 33.2346 99.4346 33.2346C99.7838 33.2346 100.08 33.1633 100.322 33.0207C100.564 32.8782 100.776 32.6894 100.958 32.4542L101.562 32.9245C101.077 33.6693 100.35 34.0417 99.3811 34.0417V34.0417ZM99.2579 28.857C98.8588 28.857 98.5239 29.0032 98.2531 29.2953C97.9823 29.584 97.8148 29.9902 97.7506 30.514H100.648V30.4392C100.619 29.9368 100.484 29.5483 100.241 29.274C99.9991 28.996 99.6712 28.857 99.2579 28.857V28.857ZM105.325 33.2346C105.678 33.2346 105.986 33.1277 106.25 32.9139C106.513 32.7001 106.659 32.4328 106.688 32.1122H107.623C107.605 32.4435 107.491 32.7589 107.281 33.0582C107.071 33.3576 106.789 33.5963 106.437 33.7744C106.087 33.9526 105.717 34.0417 105.325 34.0417C104.537 34.0417 103.91 33.7798 103.443 33.256C102.98 32.7286 102.748 32.0088 102.748 31.0965V30.9309C102.748 30.3678 102.852 29.8672 103.058 29.4289C103.265 28.9906 103.561 28.6503 103.946 28.408C104.334 28.1656 104.792 28.0445 105.319 28.0445C105.968 28.0445 106.506 28.2387 106.934 28.6272C107.365 29.0155 107.595 29.5198 107.623 30.1398H106.688C106.659 29.7656 106.517 29.4592 106.26 29.2205C106.007 28.9781 105.694 28.8569 105.319 28.8569C104.817 28.8569 104.427 29.0386 104.149 29.4022C103.875 29.7621 103.737 30.2841 103.737 30.9682V31.1553C103.737 31.8217 103.875 32.3348 104.149 32.6947C104.423 33.0547 104.815 33.2346 105.325 33.2346V33.2346ZM112.525 33.3629C112.139 33.8156 111.574 34.0418 110.83 34.0418C110.214 34.0418 109.743 33.8636 109.419 33.5073C109.098 33.1474 108.936 32.6164 108.932 31.9144V28.1515H109.921V31.8877C109.921 32.7643 110.277 33.2026 110.99 33.2026C111.745 33.2026 112.248 32.9211 112.497 32.3581V28.1515H113.486V33.9349H112.545L112.525 33.3629V33.3629ZM118.008 29.0386C117.858 29.0138 117.696 29.0013 117.522 29.0013C116.873 29.0013 116.433 29.2774 116.202 29.8298V33.9348H115.213V28.1514H116.175L116.191 28.8195C116.515 28.3028 116.975 28.0445 117.57 28.0445C117.763 28.0445 117.909 28.0694 118.008 28.1193V29.0386V29.0386ZM120.321 33.9349H119.227V28.1515H120.321V33.9349V33.9349ZM119.146 26.6175C119.146 26.4571 119.194 26.3217 119.291 26.2112C119.39 26.1008 119.536 26.0456 119.728 26.0456C119.921 26.0456 120.067 26.1008 120.167 26.2112C120.267 26.3217 120.316 26.4571 120.316 26.6175C120.316 26.7778 120.267 26.9115 120.167 27.0183C120.067 27.1253 119.921 27.1787 119.728 27.1787C119.536 27.1787 119.39 27.1253 119.291 27.0183C119.194 26.9115 119.146 26.7778 119.146 26.6175V26.6175ZM123.363 26.7511V28.1515H124.444V28.9158H123.363V32.5024C123.363 32.7341 123.411 32.9087 123.508 33.0262C123.604 33.1403 123.768 33.1973 123.999 33.1973C124.114 33.1973 124.271 33.1759 124.47 33.1332V33.9349C124.209 34.0062 123.957 34.0419 123.711 34.0419C123.269 34.0419 122.936 33.9082 122.712 33.6409C122.488 33.3737 122.375 32.9942 122.375 32.5024V28.9158H121.322V28.1515H122.375V26.7511H123.363V26.7511ZM127.715 32.4864L129.062 28.1515H130.12L127.795 34.8275C127.435 35.7896 126.863 36.2707 126.08 36.2707L125.892 36.2546L125.524 36.1852V35.3833L125.791 35.4048C126.126 35.4048 126.386 35.337 126.571 35.2016C126.759 35.0662 126.915 34.8186 127.036 34.4587L127.255 33.8707L125.192 28.1515H126.271L127.715 32.4864V32.4864ZM133.952 31.845C133.952 31.4708 134.055 31.127 134.262 30.8133C134.472 30.4998 134.87 30.1345 135.459 29.7177C135.113 29.2971 134.881 28.9586 134.764 28.702C134.646 28.4456 134.588 28.1907 134.588 27.9377C134.588 27.3462 134.762 26.8829 135.111 26.5481C135.46 26.2131 135.934 26.0456 136.533 26.0456C137.067 26.0456 137.51 26.2024 137.859 26.516C138.208 26.826 138.382 27.2179 138.382 27.6919C138.382 28.0054 138.302 28.2958 138.142 28.5631C137.985 28.8268 137.709 29.1048 137.314 29.3969L136.741 29.8192L138.473 31.8878C138.716 31.4245 138.836 30.9096 138.836 30.3431H139.73C139.73 31.2516 139.511 32.0053 139.072 32.604L140.184 33.9349H138.997L138.478 33.3203C138.215 33.5554 137.905 33.7354 137.549 33.86C137.195 33.9812 136.836 34.0419 136.469 34.0419C135.71 34.0419 135.1 33.8404 134.64 33.4378C134.182 33.0352 133.952 32.5042 133.952 31.845V31.845ZM136.469 33.2348C136.993 33.2348 137.473 33.0352 137.907 32.6361L136.009 30.3644L135.833 30.4927C135.239 30.931 134.941 31.3817 134.941 31.845C134.941 32.2654 135.077 32.6022 135.347 32.8552C135.622 33.1082 135.995 33.2348 136.469 33.2348V33.2348ZM135.577 27.9058C135.577 28.2478 135.787 28.6754 136.208 29.1886L136.838 28.7449C137.081 28.5738 137.246 28.4117 137.335 28.2586C137.425 28.1017 137.469 27.9129 137.469 27.692C137.469 27.4532 137.38 27.2554 137.202 27.0987C137.024 26.9383 136.8 26.8582 136.528 26.8582C136.236 26.8582 136.005 26.9579 135.833 27.1574C135.662 27.3534 135.577 27.6029 135.577 27.9058V27.9058ZM146.572 30.466C145.69 30.2129 145.05 29.9029 144.647 29.5359C144.248 29.1653 144.048 28.7092 144.048 28.1675C144.048 27.5546 144.292 27.0486 144.781 26.6495C145.272 26.2469 145.91 26.0456 146.694 26.0456C147.228 26.0456 147.704 26.1489 148.122 26.3556C148.542 26.5623 148.866 26.8473 149.094 27.2108C149.326 27.5743 149.442 27.9716 149.442 28.4028H148.409C148.409 27.9324 148.261 27.5636 147.961 27.2963C147.662 27.0255 147.239 26.8901 146.694 26.8901C146.188 26.8901 145.792 27.0023 145.507 27.2269C145.226 27.4478 145.085 27.756 145.085 28.1515C145.085 28.4687 145.218 28.7377 145.486 28.9586C145.757 29.176 146.215 29.3756 146.859 29.5573C147.509 29.739 148.014 29.9403 148.378 30.1612C148.744 30.3786 149.016 30.6334 149.19 30.9257C149.368 31.2178 149.457 31.5617 149.457 31.9573C149.457 32.5879 149.212 33.094 148.719 33.4753C148.228 33.8529 147.571 34.0419 146.748 34.0419C146.212 34.0419 145.714 33.9403 145.25 33.7371C144.787 33.5304 144.429 33.249 144.176 32.8927C143.927 32.5362 143.802 32.1319 143.802 31.6793H144.834C144.834 32.1496 145.006 32.522 145.352 32.7965C145.701 33.0673 146.166 33.2027 146.748 33.2027C147.289 33.2027 147.704 33.0921 147.992 32.8712C148.281 32.6503 148.426 32.3492 148.426 31.9679C148.426 31.5866 148.292 31.2927 148.025 31.086C147.758 30.8757 147.273 30.6691 146.572 30.466V30.466ZM154.411 33.3629C154.027 33.8156 153.462 34.0418 152.718 34.0418C152.1 34.0418 151.631 33.8636 151.307 33.5073C150.986 33.1474 150.823 32.6164 150.82 31.9144V28.1515H151.808V31.8877C151.808 32.7643 152.165 33.2026 152.878 33.2026C153.633 33.2026 154.135 32.9211 154.385 32.3581V28.1515H155.373V33.9349H154.433L154.411 33.3629V33.3629ZM161.986 31.1072C161.986 31.9874 161.784 32.6965 161.381 33.2346C160.98 33.7727 160.434 34.0417 159.746 34.0417C159.044 34.0417 158.491 33.819 158.09 33.3736V36.1583H157.1V28.1514H158.003L158.051 28.7928C158.454 28.2939 159.014 28.0445 159.731 28.0445C160.425 28.0445 160.974 28.3064 161.377 28.8302C161.783 29.354 161.986 30.0827 161.986 31.0164V31.1072V31.1072ZM160.997 30.9954C160.997 30.3433 160.858 29.8284 160.58 29.4506C160.302 29.0729 159.921 28.884 159.436 28.884C158.838 28.884 158.389 29.1496 158.09 29.6805V32.4439C158.385 32.9713 158.838 33.235 159.447 33.235C159.921 33.235 160.297 33.0479 160.575 32.6738C160.856 32.296 160.997 31.7365 160.997 30.9954V30.9954ZM168.351 31.1072C168.351 31.9874 168.15 32.6965 167.748 33.2346C167.345 33.7727 166.8 34.0417 166.113 34.0417C165.41 34.0417 164.858 33.819 164.455 33.3736V36.1583H163.467V28.1514H164.37L164.418 28.7928C164.82 28.2939 165.38 28.0445 166.096 28.0445C166.792 28.0445 167.34 28.3064 167.743 28.8302C168.149 29.354 168.351 30.0827 168.351 31.0164V31.1072V31.1072ZM167.363 30.9954C167.363 30.3433 167.223 29.8284 166.945 29.4506C166.667 29.0729 166.286 28.884 165.802 28.884C165.203 28.884 164.754 29.1496 164.455 29.6805V32.4439C164.751 32.9713 165.203 33.235 165.812 33.235C166.286 33.235 166.662 33.0479 166.94 32.6738C167.222 32.296 167.363 31.7365 167.363 30.9954V30.9954ZM169.57 30.9897C169.57 30.4231 169.681 29.9135 169.902 29.461C170.126 29.0084 170.437 28.6592 170.832 28.4134C171.231 28.1674 171.685 28.0445 172.195 28.0445C172.982 28.0445 173.618 28.3171 174.103 28.8623C174.591 29.4075 174.836 30.1327 174.836 31.0377V31.1072C174.836 31.6702 174.727 32.1763 174.509 32.6252C174.296 33.0707 173.987 33.4181 173.584 33.6676C173.186 33.9169 172.726 34.0417 172.206 34.0417C171.422 34.0417 170.786 33.7691 170.298 33.2239C169.813 32.6787 169.57 31.9572 169.57 31.0591V30.9897V30.9897ZM170.564 31.1073C170.564 31.7487 170.712 32.2636 171.008 32.652C171.306 33.0404 171.706 33.2347 172.205 33.2347C172.708 33.2347 173.106 33.0387 173.402 32.6467C173.698 32.2512 173.846 31.6989 173.846 30.9898C173.846 30.3554 173.694 29.8423 173.392 29.4503C173.092 29.0548 172.693 28.857 172.194 28.857C171.706 28.857 171.312 29.0512 171.013 29.4397C170.713 29.8281 170.564 30.384 170.564 31.1073V31.1073ZM179.09 29.0386C178.94 29.0138 178.778 29.0013 178.603 29.0013C177.955 29.0013 177.515 29.2774 177.283 29.8298V33.9348H176.294V28.1514H177.256L177.272 28.8195C177.597 28.3028 178.057 28.0445 178.651 28.0445C178.844 28.0445 178.989 28.0694 179.09 28.1193V29.0386V29.0386ZM181.831 26.7511V28.1515H182.911V28.9158H181.831V32.5024C181.831 32.7341 181.879 32.9087 181.975 33.0262C182.072 33.1403 182.236 33.1973 182.467 33.1973C182.581 33.1973 182.738 33.1759 182.938 33.1332V33.9349C182.677 34.0062 182.424 34.0419 182.179 34.0419C181.737 34.0419 181.404 33.9082 181.179 33.6409C180.954 33.3737 180.842 32.9942 180.842 32.5024V28.9158H179.789V28.1515H180.842V26.7511H181.831V26.7511Z" fill="black"/>
<circle cx="8.7574" cy="10.9468" r="8.7574" fill="#F50303"/>
<circle cx="28.4617" cy="10.9468" r="8.7574" fill="#FFF600"/>
<circle cx="18.6092" cy="27.3666" r="8.7574" fill="#AE00B9"/>
</g>
</svg>
