<svg width="23" height="23" viewBox="0 0 23 23" fill="none" xmlns="http://www.w3.org/2000/svg">
<path opacity="0.7" fill-rule="evenodd" clip-rule="evenodd" d="M11.0924 1C16.6573 1 21.1838 5.42666 21.1838 10.8688C21.1838 13.4364 20.1762 15.7781 18.5274 17.5356L21.7718 20.7018C22.0754 20.9987 22.0764 21.4791 21.7728 21.776C21.6215 21.926 21.4215 22 21.2225 22C21.0246 22 20.8256 21.926 20.6733 21.7781L17.3898 18.5759C15.6625 19.9287 13.4724 20.7386 11.0924 20.7386C5.52754 20.7386 1 16.3109 1 10.8688C1 5.42666 5.52754 1 11.0924 1ZM11.0924 2.52015C6.38455 2.52015 2.55443 6.26477 2.55443 10.8688C2.55443 15.4728 6.38455 19.2184 11.0924 19.2184C15.7992 19.2184 19.6293 15.4728 19.6293 10.8688C19.6293 6.26477 15.7992 2.52015 11.0924 2.52015Z" fill="#130F40" stroke="#130F40" stroke-width="0.6"/>
</svg>
